# xmcd
#
# Track frame offsets: 
#        150
#        16802
#        27775
#        40765
#        69570
#        84607
#
# Disc length: 1498 seconds
#
# Revision: 6
# Processed by: cddbd v1.5.2PL0 Copyright (c) Steve Scherf et al.
# Submitted via: ExactAudioCopy v0.95b4
#
DISCID=3e05d806
DTITLE=Various Artist - The Blues Series Sampler III
DYEAR=2000
DGENRE=Jazz
TTITLE0=Billy Taylor - I Wish I Knew How
TTITLE1=Nelsinho E Sua Orquestra - Upa Neguinho
TTITLE2=Gerald Wilson - Sunshine Of Your love
TTITLE3=Lou Donaldson - Reverend Moses
TTITLE4=Bobby Womack - Californian Dreaming
TTITLE5=Donald Byrd - Think Twice
EXTD=
EXTT0=
EXTT1=
EXTT2=
EXTT3=
EXTT4=
EXTT5=
PLAYORDER=
